<svg xmlns="http://www.w3.org/2000/svg" viewBox="0 0 189.7 40"><g fill="#1c1080"><path d="M56.1 16.1a5.5 5.5 0 01-2.5-2.5 7.4 7.4 0 01-.9-3.6 7.2 7.2 0 01.9-3.7 5.8 5.8 0 012.5-2.4 6.9 6.9 0 013.6-.9 7.4 7.4 0 014.6 1.4v1.5a6.1 6.1 0 00-4.5-1.6 5.7 5.7 0 00-2.9.7 4.8 4.8 0 00-2 2 5.6 5.6 0 00-.8 3 6.1 6.1 0 00.8 3 4.6 4.6 0 002 1.9 5.4 5.4 0 002.9.7 9.5 9.5 0 002.5-.3 5.7 5.7 0 002.1-1.3v1.5a6.9 6.9 0 01-4.8 1.5 6.8 6.8 0 01-3.5-.9zm13.2 0a6 6 0 01-2.5-2.5 7.4 7.4 0 01-.9-3.6 7.5 7.5 0 01.9-3.7 6.4 6.4 0 012.5-2.4 7.6 7.6 0 017.2 0A6.4 6.4 0 0179 6.3a7.2 7.2 0 01.9 3.7 7.4 7.4 0 01-.9 3.6 6 6 0 01-2.5 2.5 7.4 7.4 0 01-3.6.9 6.9 6.9 0 01-3.6-.9zm6.3-1.2a5.2 5.2 0 002-1.9 6 6 0 00.7-3 5.8 5.8 0 00-.7-3 5.2 5.2 0 00-2-1.9 5.1 5.1 0 00-2.8-.7 5.5 5.5 0 00-2.8.7A5 5 0 0068.1 7a6.1 6.1 0 00-.8 3 5.6 5.6 0 00.8 3 4.6 4.6 0 001.9 2 5.5 5.5 0 002.8.7 7.7 7.7 0 002.8-.8zm4.9-11.6h1.6l4.5 11.3L91 3.3h1.6l-5.3 13.4h-1.4zm14.4 0h1.5v13.4h-1.5zm4.2 0h4.1a7 7 0 013.7.8 6 6 0 012.5 2.2 8 8 0 01.8 3.6 6.2 6.2 0 01-1.9 5 7.5 7.5 0 01-5.4 1.8h-3.8zm3.7 12.1a6.5 6.5 0 004.5-1.4 5.5 5.5 0 001.4-4.1 5.3 5.3 0 00-1.4-3.9 5.3 5.3 0 00-4.1-1.5h-2.6v10.9zm9.3-5h5.9v1.2h-5.9zm10.8-5.5l-3 2.1V5.6l3.1-2.3h1.3v13.4h-1.5V4.9zm5.5 11.8v-1.3a3.4 3.4 0 001.5.2 4.2 4.2 0 003.4-1.3 6.8 6.8 0 001.3-4.2 2.3 2.3 0 01-1.5 1.2 4.8 4.8 0 01-2.2.5 4 4 0 01-2.2-.6 3.9 3.9 0 01-1.6-1.5 4.6 4.6 0 01-.5-2.3 3.8 3.8 0 01.6-2.3 4.1 4.1 0 011.6-1.6 6.1 6.1 0 012.5-.6 4.4 4.4 0 013.5 1.5 5.6 5.6 0 011.3 4.1 10.7 10.7 0 01-1.5 6.2 5.3 5.3 0 01-4.6 2.2 2.7 2.7 0 01-1.6-.2zm5.3-7a3 3 0 00.9-2.3 2.6 2.6 0 00-.4-1.5 3.2 3.2 0 00-1.1-1.2 3.3 3.3 0 00-1.7-.4 3 3 0 00-2.3.9 3.2 3.2 0 00-.9 2.3 2.9 2.9 0 00.9 2.3 3.4 3.4 0 002.3.8 3.6 3.6 0 002.3-.9zM53 21.9h4.1a7 7 0 013.7.8 5.6 5.6 0 012.5 2.3 7.5 7.5 0 01.8 3.5 6.6 6.6 0 01-1.9 5.1 7.8 7.8 0 01-5.4 1.7H53zM56.8 34a6.5 6.5 0 004.5-1.4 5.6 5.6 0 001.4-4.1 5.7 5.7 0 00-1.4-4 5.6 5.6 0 00-4.1-1.4h-2.6V34zm9.6-12.1h1.5v13.4h-1.5zm9.2 0H77l5.3 13.4h-1.6l-1.4-3.6h-6.2l-1.4 3.6h-1.6zm3.3 8.5l-2.7-6.8-2.5 6.8zm6.2 4.9a5.8 5.8 0 01-1.7-.5v-1.4a8.5 8.5 0 003.9.8 5.2 5.2 0 002.5-.5 2 2 0 00.8-1.7 2.5 2.5 0 00-.3-1.3l-1-.7a9.4 9.4 0 00-2.2-1 8.4 8.4 0 01-2.7-1.7 3 3 0 01-.9-2.3 3.2 3.2 0 01.6-1.8 3.6 3.6 0 011.5-1.2 5.6 5.6 0 012.3-.4l1.9.2 1.7.5v1.4a8 8 0 00-3.4-.7 4.6 4.6 0 00-2.3.5 1.9 1.9 0 00-.8 1.6 2 2 0 00.3 1.1 4.5 4.5 0 001 .9l1.9.9 2.2 1a3.4 3.4 0 011.2 1.2 4.9 4.9 0 01.4 1.9 3.1 3.1 0 01-1.2 2.6 6 6 0 01-3.6.9zm9.3-13.4h4.9a5.2 5.2 0 013.3 1 3.8 3.8 0 011.2 3 3.6 3.6 0 01-1.2 2.9 5 5 0 01-3.3.9h-3.4v5.5h-1.5zm4.8 6.6a3.7 3.7 0 002.3-.6 2.6 2.6 0 00.8-2.1 2.6 2.6 0 00-.8-2.1 3.7 3.7 0 00-2.3-.6h-3.3v5.3h3.3zm9.3 6.2a6 6 0 01-2.5-2.5 6.9 6.9 0 01-.9-3.6 6.9 6.9 0 01.9-3.6 6 6 0 012.5-2.5 7.1 7.1 0 013.6-.9 6.8 6.8 0 013.5.9 5.5 5.5 0 012.5 2.5 6.9 6.9 0 01.9 3.6 6.9 6.9 0 01-.9 3.6 5.5 5.5 0 01-2.5 2.5 6.8 6.8 0 01-3.5.9 6.9 6.9 0 01-3.6-.9zm6.3-1.2a5.5 5.5 0 002-2 5.6 5.6 0 00.7-3 5.4 5.4 0 00-.7-2.9 6.4 6.4 0 00-2-2 6 6 0 00-5.6 0 6.4 6.4 0 00-2 2 5.8 5.8 0 00-.7 3 6 6 0 00.7 3 6.4 6.4 0 002 2 6.4 6.4 0 002.8.7 6.5 6.5 0 002.8-.8zm6.5-11.6h5.1a4.4 4.4 0 013.2 1 3.6 3.6 0 011.1 2.8 4.1 4.1 0 01-.8 2.5 3.9 3.9 0 01-2.4 1.2l3.1 5.8h-1.5l-3.2-5.7h-3.2v5.7h-1.4V21.9zm5 6.4a2.8 2.8 0 002.1-.7 2 2 0 00.8-1.9 2.2 2.2 0 00-.8-2 3.3 3.3 0 00-2.1-.6h-3.5v5.1h3.5zm10.8-6.4h1.4l5.3 13.4h-1.5l-1.5-3.6h-6.1l-1.4 3.6h-1.6zm3.4 8.5l-2.7-6.8-2.6 6.8zm12.9-8.5h1.5v5.9h7.5v-5.9h1.5v13.4h-1.5v-6.2h-7.5v6.1h-1.5zm14.4 12.3a5 5 0 01-1.4-3.7v-8.6h1.5v8.7a3.4 3.4 0 001.1 2.7 3.9 3.9 0 002.8.9 4.1 4.1 0 002.8-.9 3.7 3.7 0 001-2.7v-8.7h1.5v8.6a4.8 4.8 0 01-1.4 3.7 5.4 5.4 0 01-4 1.3 5.4 5.4 0 01-3.9-1.3zm12-12.3h5.9a4 4 0 012.7.9 3.7 3.7 0 01.9 2.7 3.5 3.5 0 01-.5 1.8 2.4 2.4 0 01-1.3 1.1 2.9 2.9 0 012.2 3.2 4.2 4.2 0 01-.4 2 3.5 3.5 0 01-1.4 1.3 4.1 4.1 0 01-1.9.4h-6.2zm5.8 5.9a2.1 2.1 0 001.6-.6 3.1 3.1 0 00.5-1.7 3 3 0 00-.5-1.8 2.4 2.4 0 00-1.8-.5h-4.2v4.6zm.1 6.2a2.7 2.7 0 001.9-.6 2.5 2.5 0 00.6-1.9 2.5 2.5 0 00-.6-1.9 3.1 3.1 0 00-2.1-.6h-4.2v5zM53 36.5h136.5v2.09H53z"/></g><circle cx="20" cy="20" r="20" fill="#36b6ff"/></svg>